<?xml version="1.0" encoding="UTF-8"?>
<!DOCTYPE svg  PUBLIC '-//W3C//DTD SVG 1.1//EN'  'http://www.w3.org/Graphics/SVG/1.1/DTD/svg11.dtd'>
<svg width="210mm" height="75mm" clip-rule="evenodd" fill-rule="evenodd" image-rendering="optimizeQuality" shape-rendering="geometricPrecision" text-rendering="geometricPrecision" viewBox="0 0 210 75" xml:space="preserve" xmlns="http://www.w3.org/2000/svg">
 <defs>
   <linearGradient id="Gradient1">
        <stop class="fil0" offset="0%"/>
        <stop class="fill_darkblue" offset="50%"/>
        <stop class="fill_black" offset="100%"/>
    </linearGradient>
   <linearGradient id="Slider-Gradient" x1="0" x2="1" y1="0" y2="0">
      <stop offset="0%" stop-color="#1ED1A3"/>
      <stop offset="100%" stop-color="#52B2E6"/>
    </linearGradient>
   <radialGradient id="RadialGradient1">
      <stop class="fil0" offset="0%" />
      <stop class="fill_darkblue" offset="100%"/>
    </radialGradient>
  <style type="text/css">
   <![CDATA[
    #slider_gradient {fill: url(#Slider-Gradient)}
    .fillGradient {fill: url(#Gradient1);}
    .fillRadialGradient {fill: url(#RadialGradient1);}
    .fil0 {stop-color:#969594; stop-opacity: 1;}
    .fill_darkblue {stop-color:#2B3E50; stop-opacity: 0.5}
    .fill_black {stop-color: #000; stop-opacity: 0.5;}
    .fil_grey {stop-color:#4E5D6C}
    .fill_blue {stop-color: #25AAE1; stop-opacity: 0.5}
   ]]>
  </style>
 </defs>
  <path id="" class="fillGradient" d="m140.41 26.596l-2.5657 3.5923c-8.9213-0.9473-18.592-2.1316-28.895-3.5923-0.0793-0.0788-0.1581-0.158-0.2369-0.2368 0-0.3156 1.263-0.7893 3.8287-1.3814l27.869 1.6182zm67.619 38.606c-4.6973 4.5789-7.9343 6.7898-9.7106 6.7105-4.1448-0.2369-36.751-1.4602-97.817-3.6711-2.8421 0.987-5.6446 1.8556-8.3291 2.6449-6.3949 1.6976-12 2.5657-16.776 2.6449-13.816 0.1576-23.921-1.6975-30.395-5.5266 5.0525 0.0792 7.9734-0.9474 8.6448-3.0394 0.2369-0.5133 0.3553-1.0658 0.3553-1.6183 0-3.5135-2.4869-5.8819-7.5003-7.0265-4.7765-1.1055-7.9739-0.0397-9.5134 3.1186-0.8289 1.6971-0.7105 3.1181 0.3553 4.2632-0.9078-0.4345-1.8948-1.816-2.8813-4.0264-0.4737-5.329 8.3683-11.053 26.487-17.132 6.8685-9.1577 14.053-13.579 21.632-13.184 8.0924 0.4737 18.119 1.5786 30.04 3.355 9.7498 1.4607 17.21 2.1316 22.461 1.974 2.1316-0.0793 9.0397-11.132 20.684-33.198 2.0924-0.0788 3.6711 0 4.7369 0.2368 0.8686 0.2369 1.974 0.5525 3.3554 0.9078l-5.4078 25.106 35.487 3.5923c-0.3156 0.6318-1.1054 1.2631-2.4472 1.9736-3.079 0.0792-14.684-0.276-34.777-1.0658l-2.8025 10.066c-1.9736 1.9344-5.9608 5.4083-11.882 10.421-2.5657 1.9344-6.3156 4.066-11.25 6.474l77.251 5.9999zm-155.41-20.803c-2.092 0.7106-5.2894 2.0524-9.5922 4.0656-1.6971 0.987-3.9472 2.6449-6.7105 4.9737-8.7236-5.0129-19.974-11.369-33.79-18.987-0.3553-0.2369-0.5525-0.4737-0.5525-0.7106 0-1.0658 5.0525-1.8556 15.158-2.4081l35.487 13.066zm-2.2104 19.777c0 2.0919-3.0394 3.1181-9.1186 3.1181-2.6449 0-3.9475-0.7893-3.9475-2.4076 0-4.1056 2.5265-6.0395 7.5398-5.8027 3.6711 0.2369 5.5263 1.9339 5.5263 5.0922zm58.303-16.422l-2.4477-10.303-8.8817-1.1446 4.1448 12.474 7.1846-1.0267zm-10.303 1.6188l-3.5923-13.066-1.3815 13.855 4.9738-0.7893zm-5.7636-13.658c-5.8815-1.9344-10.934-2.8818-15.158-2.8818-1.6971 0-3.1182 0.1581-4.3024 0.4737-2.4477 0.6714-5.8027 3.7895-10.027 9.3554 2.2108 0.0792 6.1188 0.4736 11.645 1.145 5.0134 1.0262 10.382 2.8813 16.105 5.5659l1.7367-13.658z"/>
</svg>
